# xmcd
#
# Track frame offsets:
#	150
#	15000
#	29365
#	43305
#	60265
#	74163
#	88635
#	102673
#	118750
#	133740
#	147845
#	159913
#	174743
#	190820
#
# Disc length: 2739 seconds
#
# Revision: 2
# Processed by: cddbd v1.4PL0 Copyright (c) Steve Scherf et al.
# Submitted via: audiograbber 1.81.03
#
DISCID=c20ab10e
DTITLE=Calimeros - Da war Ewigkeit - Calimeros
DYEAR=2000
DGENRE=Schlager dt.
TTITLE0=Santa Maria
TTITLE1=Baby i louve You
TTITLE2=Fang mich auf
TTITLE3=Wenn der Sirtaki erklingt
TTITLE4=Mich hat es erwischt
TTITLE5=Eine Traene wie ein Diamant
TTITLE6=Deine heissen Kuesse
TTITLE7=Da war was wie Ewigkeit
TTITLE8=Shalala
TTITLE9=Traeume bleiben ewig
TTITLE10=Es steht in den Sternen
TTITLE11=Anna Maria
TTITLE12=Ich denke immer nur an dich
TTITLE13=Aufwiedersehen  Arrivederci
EXTD=
EXTT0=
EXTT1=
EXTT2=
EXTT3=
EXTT4=
EXTT5=
EXTT6=
EXTT7=
EXTT8=
EXTT9=
EXTT10=
EXTT11=
EXTT12=
EXTT13=
PLAYORDER=
